<svg width="37" height="30" viewBox="0 0 37 30" fill="none" xmlns="http://www.w3.org/2000/svg">
<path d="M36.7812 3.5547C35.4097 4.16591 33.9586 4.56859 32.4737 4.75001C34.0342 3.81281 35.2078 2.32389 35.7743 0.562513C34.2989 1.44735 32.6874 2.06819 31.0089 2.39845C30.3021 1.63871 29.4521 1.03431 28.5105 0.622001C27.5688 0.209689 26.5553 -0.0019276 25.5314 1.323e-05C21.3862 1.323e-05 18.0315 3.39064 18.0315 7.57032C18.0286 8.1517 18.0936 8.73135 18.225 9.29689C15.2526 9.15397 12.3419 8.37625 9.67928 7.01349C7.01666 5.65074 4.6607 3.73295 2.76213 1.38283C2.09606 2.53448 1.74381 3.84848 1.74219 5.18751C1.74219 7.81251 3.07748 10.1328 5.09375 11.4922C3.89917 11.4631 2.72906 11.1388 1.68277 10.5469V10.6406C1.68277 14.3125 4.27262 17.3672 7.70035 18.0625C7.05577 18.2388 6.39154 18.328 5.72445 18.3281C5.2511 18.329 4.77883 18.2819 4.31451 18.1875C5.26742 21.1953 8.04084 23.3828 11.3261 23.4453C8.6566 25.5554 5.3791 26.6959 2.00879 26.6875C1.41055 26.6866 0.812864 26.6501 0.21875 26.5781C3.64738 28.8236 7.6329 30.0114 11.7009 30C25.5154 30 33.0625 18.461 33.0625 8.45314C33.0625 8.12501 33.0542 7.79689 33.0389 7.47658C34.5038 6.40787 35.7711 5.07979 36.7812 3.5547Z" fill="white"/>
</svg>
