<svg width="40" height="30" viewBox="0 0 40 30" fill="none" xmlns="http://www.w3.org/2000/svg">
<path d="M39.7375 6.62422C39.7375 3.10859 37.1516 0.280468 33.9563 0.280468C29.6281 0.0781247 25.2141 0 20.7031 0H19.2969C14.7969 0 10.375 0.0781249 6.04689 0.28125C2.85939 0.28125 0.273455 3.125 0.273455 6.64062C0.0781423 9.42109 -0.00467018 12.2023 1.73206e-05 14.9836C-0.00779518 17.7648 0.0807465 20.5487 0.265642 23.3352C0.265642 26.8508 2.85158 29.7023 6.03908 29.7023C10.586 29.9133 15.25 30.007 19.9922 29.9992C24.7422 30.0148 29.3932 29.9159 33.9453 29.7023C37.1406 29.7023 39.7266 26.8508 39.7266 23.3352C39.9141 20.5461 40 17.7648 39.9922 14.9758C40.0099 12.1945 39.925 9.41068 39.7375 6.62422ZM16.1719 22.6477V7.29609L27.5 14.968L16.1719 22.6477Z" fill="white"/>
</svg>
